# xmcd
#
# Track frame offsets: 
#        150
#        3073
#        15700
#        22353
#        35823
#        38585
#        52678
#        70185
#        81528
#        97663
#        105538
#        124630
#        127303
#        138160
#        157433
#        165458
#        191215
#        214575
#        233573
#        235120
#        238833
#        262705
#        281635
#        298063
#
# Disc length: 4224 seconds
#
# Revision: 7
# Processed by: cddbd v1.5.2PL0 Copyright (c) Steve Scherf et al.
# Submitted via: ExactAudioCopy v1.3
#
DISCID=4d107e18
DTITLE=Meridian Arts Ensemble - Zappa, Beefheart, London, (...) - Prim
DTITLE=e Meridian
DYEAR=1995
DGENRE=Jazz
TTITLE0=Stravinsky - Fanfare for a New Theater
TTITLE1=Zappa - Peaches en Regalia
TTITLE2=Zappa - Let's Make the Water Turn Back
TTITLE3=Zappa - Oh No
TTITLE4=Zappa - Igor's Boogie
TTITLE5=Zappa - Eat that Question
TTITLE6=Zappa - Echidna's Arf
TTITLE7=Wheeler - Song for Someone
TTITLE8=Captain Beefheart - Ice Rose
TTITLE9=Captain Beefheart - A Carrot is as Close as a Rabbit Gets to a
TTITLE9=Diamond
TTITLE10=Captain Beefheart - When I See Mommy, I Feel Like a Mummy
TTITLE11=Captain Beefheart - Apes-Ma
TTITLE12=Captain Beefheart - Dropout-Boggie
TTITLE13=Captain Beefheart - Suction Prints
TTITLE14=Babbitt - Fanfare for All
TTITLE15=Nelson - Song for a Dead King
TTITLE16=Shemaria - Pandora's Magic Castle
TTITLE17=Hancock - Jessica
TTITLE18=London - Bucket Cue (Shvitz Suite)
TTITLE19=London - Freaky Guitar Freylekhs (Shvitz Suite)
TTITLE20=London - V'erastikh Li (Divine Betrothal) ( (Shvitz Suite)
TTITLE21=London - Full Moon, Ancient Waters (Shvitz Suite)
TTITLE22=London - Psycho-Klezmer (Shvitz Suite)
TTITLE23=Nelson - Paterson 2.35
EXTD=YEAR: 1995
EXTT0=
EXTT1=
EXTT2=
EXTT3=
EXTT4=
EXTT5=
EXTT6=
EXTT7=
EXTT8=
EXTT9=
EXTT10=
EXTT11=
EXTT12=
EXTT13=
EXTT14=
EXTT15=
EXTT16=
EXTT17=
EXTT18=
EXTT19=
EXTT20=
EXTT21=
EXTT22=
EXTT23=
PLAYORDER=
